<svg xmlns="http://www.w3.org/2000/svg" viewBox="0 0 437.5 378.8">
  <title>Asset 2</title>
  <g>
    <path d="M437.5,189.4,328.1,378.8H109.4L0,189.4,109.4,0H328.1Z" style="fill: #f2f2f2;isolation: isolate"/>
    <path d="M227.9,119.1V263.8h32.9a65.51,65.51,0,0,0,19.3-2.5,40.09,40.09,0,0,0,15-8.9c6-5.7,11.1-13.9,15-24.5s5.9-22.8,5.9-36.2c0-14-1.9-26.1-5.6-36.4s-8.7-18.6-15.1-24.7a39.49,39.49,0,0,0-13.9-8.4,57.69,57.69,0,0,0-19.6-3H227.9Z" style="fill: #15d45e"/>
    <path d="M359.8,227.1a53.67,53.67,0,0,1-5.7,25.1,51.11,51.11,0,0,1-15.5,18.4,72.39,72.39,0,0,1-25.3,12.2q-13.65,3.6-34.8,3.6H193.9V92.6h75.3c15.6,0,27,.5,34.2,1.6a68,68,0,0,1,21.6,6.9,37.72,37.72,0,0,1,16.4,15.1,42.44,42.44,0,0,1,5.5,21.5,43.23,43.23,0,0,1-7.4,24.9c-4.9,7.1-11.9,12.7-21,16.7v1c12.7,2.5,22.7,7.7,30.1,15.6s11.2,18.2,11.2,31.2Zm-64.1-79.7a20.23,20.23,0,0,0-2.5-9.6c-1.6-3.2-4.4-5.6-8.5-7.2a40.47,40.47,0,0,0-13.7-2.2q-8.1-.3-22.8-.3h-4.7v41h7.8c7.9,0,14.6-.1,20.2-.4s9.9-1.1,13.2-2.6c4.5-2,7.5-4.6,8.9-7.7a27,27,0,0,0,2.1-11ZM308,226.3c0-6.2-1.2-10.9-3.6-14.2s-6.4-5.9-12.1-7.6c-3.9-1.1-9.3-1.7-16.1-1.8s-14-.1-21.5-.1H243.8v48.3h3.6c14.1,0,24.1,0,30.2-.1a43.8,43.8,0,0,0,16.8-3.4c5.2-2.2,8.8-5,10.7-8.6a26.79,26.79,0,0,0,2.9-12.5Z" style="fill: #6a11ad"/>
    <path d="M243.62,128.1h-88.4v41h88.4v33.5h-89.1v83.8h-49.8l-.1-193.9h139Z" style="fill: #15d45e"/>
  </g>
</svg>
