<?xml version="1.0" encoding="UTF-8" standalone="no"?>
<svg
   xmlns:dc="http://purl.org/dc/elements/1.1/"
   xmlns:cc="http://creativecommons.org/ns#"
   xmlns:rdf="http://www.w3.org/1999/02/22-rdf-syntax-ns#"
   xmlns:svg="http://www.w3.org/2000/svg"
   xmlns="http://www.w3.org/2000/svg"
   xmlns:sodipodi="http://sodipodi.sourceforge.net/DTD/sodipodi-0.dtd"
   xmlns:inkscape="http://www.inkscape.org/namespaces/inkscape"
   viewBox="0 0 437.5 378.8"
   version="1.1"
   id="svg14"
   sodipodi:docname="logo.svg"
   inkscape:version="0.92.4 (5da689c313, 2019-01-14)">
  <metadata
     id="metadata20">
    <rdf:RDF>
      <cc:Work
         rdf:about="">
        <dc:format>image/svg+xml</dc:format>
        <dc:type
           rdf:resource="http://purl.org/dc/dcmitype/StillImage" />
        <dc:title>Asset 2</dc:title>
      </cc:Work>
    </rdf:RDF>
  </metadata>
  <defs
     id="defs18" />
  <sodipodi:namedview
     pagecolor="#ffffff"
     bordercolor="#666666"
     borderopacity="1"
     objecttolerance="10"
     gridtolerance="10"
     guidetolerance="10"
     inkscape:pageopacity="0"
     inkscape:pageshadow="2"
     inkscape:window-width="1366"
     inkscape:window-height="713"
     id="namedview16"
     showgrid="false"
     inkscape:snap-bbox="true"
     inkscape:snap-nodes="true"
     inkscape:zoom="1"
     inkscape:cx="101.16485"
     inkscape:cy="205.13174"
     inkscape:window-x="-8"
     inkscape:window-y="-8"
     inkscape:window-maximized="1"
     inkscape:current-layer="svg14" />
  <title
     id="title2">Asset 2</title>
  <g
     id="g825">
    <path
       d="M 437.5,189.4 328.1,378.8 H 109.4 L 0,189.4 109.4,0 h 218.7 z"
       style="isolation:isolate;fill:#e1e1e1;fill-opacity:1"
       id="path4"
       inkscape:connector-curvature="0" />
    <path
       d="m 227.9,119.1 v 144.7 h 32.9 a 65.51,65.51 0 0 0 19.3,-2.5 40.09,40.09 0 0 0 15,-8.9 c 6,-5.7 11.1,-13.9 15,-24.5 3.9,-10.6 5.9,-22.8 5.9,-36.2 0,-14 -1.9,-26.1 -5.6,-36.4 -3.7,-10.3 -8.7,-18.6 -15.1,-24.7 a 39.49,39.49 0 0 0 -13.9,-8.4 57.69,57.69 0 0 0 -19.6,-3 h -33.9 z"
       style="fill:#15d45e"
       id="path6"
       inkscape:connector-curvature="0" />
    <path
       d="m 359.8,227.1 c 0.16407,8.70516 -1.79218,17.31954 -5.7,25.1 -3.62896,7.27931 -8.94283,13.58739 -15.5,18.4 -7.55594,5.67946 -16.15103,9.82413 -25.3,12.2 -9.1,2.4 -20.7,3.6 -34.8,3.6 H 193.9 V 128.09999 L 219.7094,110.63121 243.5,92.599996 269.2,92.6 c 15.6,2e-6 27,0.5 34.2,1.6 7.53544,1.074871 14.83693,3.407292 21.6,6.9 6.86315,3.26606 12.57953,8.52931 16.4,15.1 3.70781,6.552 5.60605,13.97236 5.5,21.5 0.14431,8.86235 -2.43901,17.55488 -7.4,24.9 -4.9,7.1 -11.9,12.7 -21,16.7 v 1 c 12.7,2.5 22.7,7.7 30.1,15.6 7.4,7.9 11.2,18.2 11.2,31.2 z m -64.1,-79.7 c -0.0237,-3.35789 -0.88283,-6.65708 -2.5,-9.6 -1.6,-3.2 -4.4,-5.6 -8.5,-7.2 -4.40596,-1.51656 -9.04073,-2.26084 -13.7,-2.2 -5.4,-0.2 -13,-0.3 -22.8,-0.3 l -4.7,-1e-5 v 41 l 7.8,1e-5 c 7.9,1e-5 14.6,-0.1 20.2,-0.4 5.6,-0.3 9.9,-1.1 13.2,-2.6 4.5,-2 7.5,-4.6 8.9,-7.7 1.46107,-3.47961 2.17645,-7.22687 2.1,-11 z m 12.3,78.9 c 0,-6.2 -1.2,-10.9 -3.6,-14.2 -2.4,-3.3 -6.4,-5.9 -12.1,-7.6 -3.9,-1.1 -9.3,-1.7 -16.1,-1.8 -6.8,-0.1 -14,-0.1 -21.5,-0.1 l -11.2,-1e-5 V 250.9 h 3.9 c 14.1,0 24.1,0 30.2,-0.1 5.76927,-0.0158 11.47857,-1.17129 16.8,-3.4 5.2,-2.2 8.8,-5 10.7,-8.6 1.96501,-3.87022 2.96023,-8.15993 2.9,-12.5 z"
       style="fill:#6a11ad"
       id="path8"
       inkscape:connector-curvature="0"
       sodipodi:nodetypes="ccccsccccscccccccscccccsccssccccscssccscccc" />
    <path
       d="m 243.5,128.09999 h -88.28 v 41 h 88.28 v 33.5 h -88.98 v 83.8 l -49.8,10e-6 -0.1,-193.800012 H 243.5 Z"
       style="fill:#15d45e"
       id="path10"
       inkscape:connector-curvature="0"
       sodipodi:nodetypes="ccccccccccc" />
  </g>
</svg>
